<svg width="151" height="123" viewBox="0 0 151 123" fill="none" xmlns="http://www.w3.org/2000/svg">
<path d="M48.361 0L0.5 48.7325L48.361 97.1093L72.9852 72.2095L49.7483 48.7325L72.9852 25.2555L48.361 0Z" fill="#F5B700"/>
<path d="M52.8697 0H99.3434L75.7597 23.5837L52.8697 0Z" fill="#F5B700"/>
<path d="M103.176 1.11434L55.3635 48.9265L102.688 96.2509L150.5 48.4387L103.176 1.11434Z" fill="#040039"/>
<path d="M75.4129 73.8725L98.9966 97.4562H52.8697L75.4129 73.8725Z" fill="#040039"/>
<path d="M41.6306 105.959H39.2056L44.733 122.08H47.6864L53.1325 105.959H50.6804L46.6432 119.113L46.2639 120.455L45.8574 119.113L41.6306 105.959Z" fill="#040039"/>
<path fill-rule="evenodd" clip-rule="evenodd" d="M60.9522 122.351C63.2101 122.351 65.2739 121.976 67.1435 121.227L66.4796 119.29C64.7275 120.039 62.894 120.414 60.9793 120.414C59.0646 120.414 57.7866 119.913 57.1453 118.91C56.6215 118.088 56.3595 116.639 56.3595 114.561C57.5879 114.76 59.34 114.859 61.616 114.859H63.7972C64.8087 114.859 65.9513 114.832 67.2247 114.778C67.2789 114.128 67.306 113.211 67.306 112.028C67.306 111.269 67.2338 110.475 67.0893 109.644C66.9538 108.804 66.6693 108.09 66.2358 107.503C65.3416 106.293 63.6707 105.688 61.2231 105.688C58.7123 105.688 56.9195 106.203 55.8447 107.232C54.6525 108.388 54.0564 110.398 54.0564 113.261V113.952C54.0564 116.345 54.2777 118.152 54.7203 119.371C55.199 120.671 56.1654 121.529 57.6195 121.945C58.5317 122.216 59.6426 122.351 60.9522 122.351ZM65.0165 111.676V112.976H56.3595C56.3595 110.944 56.6757 109.553 57.3079 108.804C57.9672 108.018 59.2 107.625 61.0064 107.625C62.5147 107.625 63.5759 107.964 64.1901 108.641C64.741 109.246 65.0165 110.258 65.0165 111.676Z" fill="#040039"/>
<path d="M72.4704 109.657C73.6716 108.501 74.8502 107.923 76.0063 107.923C76.6205 107.923 77.1579 107.977 77.6185 108.086L77.8217 105.932C77.2075 105.769 76.6972 105.688 76.2908 105.688C75.8844 105.688 75.4554 105.751 75.0038 105.877C74.6877 105.959 74.2812 106.184 73.7845 106.555C73.2968 106.925 72.8407 107.44 72.4162 108.099L72.1994 105.959H70.2215V122.08H72.4704V109.657Z" fill="#040039"/>
<path d="M84.6524 120.441C82.7738 120.441 80.9042 119.922 79.0437 118.883L78.0683 120.753C78.8721 121.213 79.7707 121.584 80.7642 121.864C81.2881 122.017 81.8345 122.135 82.4035 122.216C82.9815 122.306 83.6137 122.351 84.3002 122.351C84.9866 122.351 85.673 122.293 86.3594 122.175C88.6264 121.787 89.7824 120.206 89.8276 117.433C89.8457 115.844 89.516 114.728 88.8386 114.087C88.5135 113.771 88.1251 113.541 87.6735 113.396C87.2219 113.252 86.7207 113.139 86.1697 113.058C85.6188 112.967 84.9098 112.868 84.0428 112.76C83.1757 112.642 82.4261 112.434 81.7938 112.136C81.1345 111.829 80.8184 111.111 80.8455 109.982C80.8636 109.025 81.0894 108.37 81.5229 108.018C81.7487 107.846 82.0287 107.729 82.3628 107.666C82.697 107.602 83.0673 107.571 83.4738 107.571C83.8892 107.571 84.3318 107.602 84.8014 107.666C86.3188 107.873 87.6193 108.208 88.7031 108.668L89.3399 106.622C88.3644 106.207 87.0548 105.923 85.4111 105.769C82.9996 105.552 81.27 105.787 80.2223 106.473C79.1385 107.169 78.5966 108.339 78.5966 109.982V110.321C78.5605 111.883 79.0121 112.994 79.9514 113.654C80.3939 113.961 80.9313 114.196 81.5635 114.358C82.1958 114.521 82.8912 114.67 83.6499 114.805C84.4085 114.932 85.0317 115.031 85.5194 115.103C86.0162 115.176 86.4136 115.288 86.7116 115.442C87.0097 115.586 87.2219 115.812 87.3484 116.119C87.4748 116.417 87.538 116.842 87.538 117.393C87.538 117.935 87.4929 118.395 87.4026 118.775C87.1316 119.886 86.2149 120.441 84.6524 120.441Z" fill="#040039"/>
<path fill-rule="evenodd" clip-rule="evenodd" d="M98.853 122.351C101.111 122.351 103.175 121.976 105.044 121.227L104.38 119.29C102.628 120.039 100.795 120.414 98.8801 120.414C96.9654 120.414 95.6874 119.913 95.0461 118.91C94.5223 118.088 94.2604 116.639 94.2604 114.561C95.4887 114.76 97.2408 114.859 99.5168 114.859H101.698C102.71 114.859 103.852 114.832 105.126 114.778C105.18 114.128 105.207 113.211 105.207 112.028C105.207 111.269 105.135 110.475 104.99 109.644C104.855 108.804 104.57 108.09 104.137 107.503C103.242 106.293 101.572 105.688 99.124 105.688C96.6131 105.688 94.8203 106.203 93.7456 107.232C92.5534 108.388 91.9573 110.398 91.9573 113.261V113.952C91.9573 116.345 92.1786 118.152 92.6211 119.371C93.0998 120.671 94.0662 121.529 95.5203 121.945C96.4325 122.216 97.5434 122.351 98.853 122.351ZM102.917 111.676V112.976H94.2604C94.2604 110.944 94.5765 109.553 95.2087 108.804C95.868 108.018 97.1009 107.625 98.9072 107.625C100.416 107.625 101.477 107.964 102.091 108.641C102.642 109.246 102.917 110.258 102.917 111.676Z" fill="#040039"/>
</svg>
